<?xml version="1.0" standalone="no"?>
<!DOCTYPE svg PUBLIC "-//W3C//DTD SVG 20010904//EN"
 "http://www.w3.org/TR/2001/REC-SVG-20010904/DTD/svg10.dtd">
<svg version="1.0" xmlns="http://www.w3.org/2000/svg"
 width="3000.000000pt" height="3000.000000pt" viewBox="0 0 3000.000000 3000.000000"
 preserveAspectRatio="xMidYMid meet">
<metadata>
Created by potrace 1.11, written by Peter Selinger 2001-2013
</metadata>
<g transform="translate(0.000000,3000.000000) scale(0.100000,-0.100000)"
fill="#000000" stroke="none">
<path d="M3637 19148 c-25 -59 -109 -252 -132 -303 -13 -28 -51 -116 -85 -195
-34 -79 -73 -169 -87 -200 -39 -88 -38 -85 -328 -750 -152 -349 -292 -669
-310 -710 -18 -41 -120 -273 -225 -515 -105 -242 -198 -453 -205 -470 -78
-177 -95 -216 -95 -220 0 -2 -13 -32 -29 -67 -37 -80 -28 -61 -236 -538 -97
-223 -185 -424 -196 -447 -10 -23 -19 -44 -19 -47 0 -2 -15 -37 -34 -78 -18
-40 -64 -143 -101 -228 -37 -85 -75 -173 -85 -195 -10 -22 -36 -83 -58 -135
-22 -52 -54 -124 -70 -160 -16 -36 -42 -94 -57 -130 -15 -36 -41 -93 -56 -128
-16 -34 -29 -64 -29 -66 0 -2 -16 -38 -35 -79 -19 -41 -35 -77 -35 -80 0 -3
-16 -40 -35 -81 -19 -42 -35 -78 -35 -80 0 -3 -13 -33 -29 -68 -16 -35 -57
-128 -91 -208 -34 -79 -72 -167 -85 -195 -12 -27 -53 -120 -90 -205 -102 -234
-235 -539 -260 -595 -18 -41 -496 -1137 -502 -1152 -4 -9 81 -11 357 -10 l361
2 63 145 c35 80 180 411 321 735 141 325 263 604 270 620 7 17 38 86 68 155
30 69 132 303 227 520 95 217 180 413 190 435 10 22 45 103 78 181 33 78 70
163 82 190 12 27 28 63 35 79 7 17 48 109 89 205 42 96 81 184 85 195 5 11 19
43 31 70 13 28 38 86 57 129 38 89 52 120 81 186 11 25 72 164 135 310 63 146
127 292 142 325 14 33 30 69 35 80 4 11 20 46 34 78 14 31 38 85 52 120 14 34
37 86 50 115 13 29 24 55 24 57 0 2 11 28 24 57 13 29 50 112 81 183 31 72 63
146 72 165 17 38 18 40 93 215 29 66 60 138 70 160 28 61 220 502 290 665 60
140 77 178 120 275 36 81 189 462 236 587 78 208 155 453 146 462 -3 3 1 6 9
6 10 0 28 -45 57 -137 68 -217 83 -259 233 -633 72 -181 216 -521 269 -635 10
-22 32 -71 48 -110 32 -75 125 -288 150 -345 9 -19 16 -37 17 -40 1 -3 8 -21
17 -40 8 -19 70 -161 138 -315 67 -154 130 -298 140 -320 10 -22 55 -125 100
-230 94 -218 203 -469 232 -535 11 -25 43 -97 70 -160 52 -119 60 -137 101
-230 13 -30 39 -89 56 -130 18 -41 39 -88 46 -105 34 -75 296 -679 319 -733
14 -34 37 -85 50 -114 13 -29 38 -87 56 -128 18 -41 41 -95 53 -120 11 -25 64
-146 117 -270 54 -124 130 -298 169 -387 69 -159 198 -455 227 -520 23 -54 39
-91 99 -228 32 -71 77 -175 100 -230 79 -182 112 -259 139 -317 14 -31 26 -59
26 -62 0 -3 13 -33 29 -68 16 -35 59 -133 96 -218 38 -85 78 -177 90 -205 13
-27 32 -71 43 -98 l21 -47 360 1 359 1 -33 77 c-67 155 -268 617 -285 656 -10
22 -42 94 -70 160 -60 139 -69 159 -105 240 -15 33 -56 125 -90 205 -34 80
-142 327 -240 550 -98 223 -190 434 -205 470 -15 36 -37 88 -49 115 -13 28
-29 66 -38 85 -32 75 -265 607 -278 635 -7 17 -46 104 -85 195 -39 91 -78 179
-85 195 -7 17 -115 264 -240 550 -124 286 -232 534 -240 550 -16 35 -321 733
-465 1065 -54 124 -107 245 -118 270 -12 25 -60 135 -107 245 -48 110 -102
235 -121 278 -19 42 -49 112 -68 155 -19 42 -50 113 -69 157 -19 44 -106 242
-192 440 -86 198 -165 378 -175 400 -10 22 -39 90 -65 150 -43 100 -122 280
-179 410 -13 28 -28 65 -35 83 l-13 32 -369 0 -369 0 -13 -32z"/>
<path d="M7354 19103 c19 -43 49 -114 69 -158 19 -44 67 -154 107 -245 40 -91
80 -183 90 -205 10 -22 39 -89 65 -150 26 -60 55 -128 65 -150 10 -22 114
-258 230 -525 116 -267 217 -498 224 -515 8 -16 28 -64 46 -105 18 -41 42 -97
55 -125 12 -27 37 -84 54 -125 18 -41 42 -95 53 -120 11 -25 40 -90 63 -145
24 -55 87 -199 140 -320 54 -121 102 -231 107 -245 9 -25 14 -35 67 -153 17
-38 31 -70 31 -72 0 -2 13 -32 29 -67 16 -35 135 -307 265 -606 130 -299 246
-564 257 -590 29 -65 43 -96 82 -188 19 -43 44 -101 57 -129 24 -54 24 -54
100 -230 29 -66 60 -138 70 -160 19 -43 172 -394 417 -955 222 -509 360 -825
393 -900 71 -161 458 -1048 470 -1078 l13 -33 365 3 365 3 69 160 c38 88 79
180 90 205 11 25 55 126 98 225 43 99 89 205 103 235 14 30 38 87 55 125 54
127 598 1374 632 1450 10 22 48 110 85 195 80 187 87 203 113 260 18 42 58
133 219 505 36 83 76 173 88 200 13 28 51 116 85 195 34 79 72 167 85 195 12
27 57 130 100 229 78 181 145 337 170 391 8 17 145 332 305 700 161 369 346
794 412 945 66 151 147 338 179 415 33 77 65 154 73 170 21 48 32 75 66 160
17 44 35 89 40 100 45 101 220 611 220 641 0 10 25 -2 26 -12 4 -56 194 -596
274 -779 10 -22 46 -107 80 -190 34 -82 76 -179 92 -215 16 -36 41 -92 55
-125 21 -51 64 -150 143 -330 10 -22 41 -94 70 -160 29 -66 60 -138 70 -160
10 -22 46 -105 80 -185 34 -80 72 -167 85 -195 24 -53 113 -259 227 -520 38
-88 73 -169 78 -180 5 -11 28 -63 51 -115 59 -138 64 -150 89 -205 12 -27 29
-66 37 -85 8 -19 22 -51 30 -70 8 -19 53 -123 100 -230 46 -107 90 -208 98
-225 7 -16 61 -140 120 -275 59 -135 115 -263 125 -285 23 -53 111 -254 165
-380 24 -55 54 -125 68 -155 13 -30 46 -104 72 -165 26 -60 56 -130 67 -155
11 -25 26 -58 33 -75 78 -179 222 -511 240 -550 12 -27 57 -131 100 -230 43
-99 89 -205 102 -235 14 -30 32 -71 40 -90 8 -19 26 -58 39 -87 13 -28 24 -55
24 -58 0 -3 11 -30 24 -58 13 -29 47 -106 76 -172 28 -66 55 -129 61 -140 5
-11 67 -153 138 -315 l129 -295 359 -3 c281 -2 363 1 371 10 5 7 29 58 52 113
23 55 51 120 63 145 11 25 67 153 124 285 58 132 113 258 123 280 10 22 32 74
50 115 18 41 43 99 56 128 13 29 36 80 50 115 14 34 34 80 44 102 10 22 82
186 160 365 151 345 162 372 184 423 8 17 72 163 141 322 70 160 138 314 151
343 13 29 24 55 24 57 0 2 11 28 24 57 14 29 39 87 57 128 17 41 43 100 56
130 14 30 31 71 39 90 9 19 19 44 24 55 60 131 150 342 150 352 0 7 5 13 10
13 6 0 10 6 10 14 0 7 16 49 36 92 20 44 72 162 116 264 43 102 88 203 98 225
10 22 35 78 55 125 20 47 43 99 50 115 15 33 288 661 392 900 36 83 77 175 90
205 14 30 44 100 68 155 43 100 215 494 240 550 8 17 84 192 171 390 86 198
164 378 174 400 10 22 57 129 104 238 47 109 97 223 111 253 14 30 25 56 25
59 0 2 13 32 29 67 16 35 42 95 59 133 16 39 62 144 102 235 40 91 87 200 106
243 l33 77 -362 0 -362 0 -54 -128 c-30 -70 -65 -152 -79 -182 -13 -30 -31
-69 -38 -87 -87 -197 -129 -293 -139 -318 -6 -16 -21 -50 -32 -75 -19 -42
-560 -1284 -625 -1435 -17 -38 -38 -88 -48 -110 -17 -38 -162 -370 -465 -1065
-75 -173 -197 -452 -270 -620 -73 -168 -210 -483 -305 -700 -94 -217 -184
-423 -201 -458 -16 -35 -29 -65 -29 -67 0 -3 -260 -602 -304 -700 -8 -16 -28
-64 -46 -105 -18 -41 -44 -100 -57 -130 -13 -30 -28 -64 -33 -75 -11 -27 -25
-58 -115 -264 -200 -459 -373 -915 -435 -1148 -6 -24 -14 -43 -19 -43 -7 0
-46 108 -56 156 -14 69 -243 673 -330 870 -27 60 -42 96 -115 264 -39 91 -79
183 -89 205 -10 22 -107 245 -215 495 -109 250 -204 469 -211 485 -7 17 -46
104 -85 195 -70 160 -83 191 -121 275 -9 22 -99 229 -199 460 -100 231 -192
443 -205 470 -12 28 -50 113 -83 190 -33 77 -99 230 -147 340 -156 357 -251
575 -402 925 -127 293 -382 877 -402 923 -10 23 -56 128 -101 232 -46 105 -91
208 -100 230 -10 22 -54 125 -99 228 -45 104 -90 207 -101 230 -11 22 -20 44
-20 48 0 4 -15 40 -34 81 -18 40 -66 148 -106 241 l-73 167 -367 0 -368 0 -37
-87 c-42 -100 -53 -124 -90 -208 -15 -33 -42 -94 -60 -135 -18 -41 -42 -96
-54 -122 -11 -26 -21 -49 -21 -52 0 -3 -11 -29 -24 -58 -13 -29 -57 -127 -96
-218 -39 -90 -80 -183 -90 -205 -10 -22 -30 -69 -45 -105 -15 -36 -51 -119
-80 -185 -29 -66 -106 -241 -170 -390 -64 -148 -125 -288 -135 -310 -10 -22
-93 -213 -185 -425 -92 -212 -206 -473 -252 -580 -47 -107 -143 -328 -213
-490 -164 -377 -637 -1466 -655 -1505 -7 -16 -43 -100 -80 -185 -37 -85 -75
-173 -85 -195 -33 -76 -49 -111 -170 -390 -67 -154 -149 -343 -182 -420 -33
-77 -70 -162 -82 -190 -128 -283 -278 -655 -373 -925 -30 -85 -56 -159 -57
-165 -20 -86 -47 -165 -55 -165 -5 0 -18 35 -31 78 -55 190 -108 335 -241 671
-60 150 -119 294 -130 318 -11 25 -59 134 -106 242 -79 182 -207 477 -238 546
-7 17 -61 140 -120 275 -58 135 -112 259 -120 275 -12 27 -31 70 -71 163 -20
46 -24 54 -234 537 -105 242 -197 454 -205 470 -7 17 -20 46 -28 65 -8 19 -39
89 -67 155 -29 66 -60 138 -70 160 -27 62 -179 409 -275 630 -48 110 -98 224
-111 253 -13 29 -24 55 -24 58 0 3 -12 31 -26 62 -14 31 -34 75 -44 97 -45
102 -131 299 -220 505 -124 285 -236 543 -260 595 -10 22 -30 68 -44 103 -15
34 -40 93 -57 129 -17 36 -54 123 -84 192 -29 69 -112 261 -184 426 -73 165
-171 391 -219 502 l-87 203 -362 0 -362 0 33 -77z"/>
<path d="M25582 19108 c-17 -40 -81 -188 -142 -328 -109 -248 -125 -285 -154
-352 -8 -18 -56 -127 -106 -243 -51 -115 -98 -223 -105 -240 -7 -16 -30 -68
-50 -115 -21 -47 -49 -110 -62 -140 -14 -30 -29 -64 -33 -75 -12 -30 -384
-881 -414 -947 -14 -31 -26 -59 -26 -62 0 -2 -16 -39 -35 -80 -19 -42 -35 -78
-35 -80 0 -3 -13 -33 -29 -68 -16 -35 -57 -128 -91 -208 -34 -80 -73 -167 -85
-195 -12 -27 -122 -279 -244 -560 -122 -280 -235 -538 -252 -573 -16 -35 -29
-65 -29 -67 0 -3 -34 -82 -76 -177 -42 -95 -92 -209 -111 -253 -19 -44 -43
-98 -52 -120 -10 -22 -31 -69 -46 -105 -15 -36 -38 -87 -50 -115 -12 -27 -53
-120 -90 -205 -37 -85 -80 -183 -96 -218 -16 -35 -29 -65 -29 -67 0 -2 -11
-28 -24 -57 -13 -29 -36 -81 -50 -115 -14 -35 -38 -89 -52 -120 -15 -32 -32
-71 -39 -88 -15 -34 -331 -758 -520 -1190 -70 -159 -179 -409 -242 -554 -63
-145 -125 -287 -138 -315 -12 -28 -42 -96 -65 -151 -23 -55 -44 -103 -47 -108
-2 -4 159 -6 358 -5 l362 3 38 85 c57 128 71 160 149 340 39 91 75 174 80 185
5 11 18 40 29 65 37 85 103 235 116 265 7 17 59 136 115 265 56 129 108 249
115 265 7 17 61 140 120 275 59 135 128 295 155 355 26 61 87 200 135 310 276
633 305 700 345 789 11 25 20 47 20 50 0 3 13 33 29 68 30 66 38 84 94 213 81
187 381 873 397 910 10 22 64 146 119 275 56 129 111 255 123 280 11 25 47
108 80 185 33 77 68 158 78 180 31 69 322 736 460 1055 72 168 138 319 146
336 98 219 283 725 333 912 7 23 16 42 21 42 5 0 18 -33 31 -72 78 -259 284
-802 396 -1048 14 -30 41 -91 60 -134 18 -44 40 -94 48 -110 8 -17 53 -121
100 -231 109 -251 138 -318 240 -550 32 -71 77 -175 100 -230 24 -55 77 -179
119 -275 43 -96 84 -190 92 -210 9 -19 23 -51 31 -70 40 -90 160 -366 200
-460 25 -58 55 -127 68 -155 12 -27 91 -207 174 -400 84 -192 161 -368 171
-390 10 -22 30 -69 45 -105 15 -36 40 -94 57 -130 16 -36 39 -87 50 -114 10
-27 27 -68 37 -90 10 -23 28 -61 39 -86 11 -25 98 -223 192 -440 95 -217 182
-417 194 -445 13 -27 42 -95 66 -150 24 -55 67 -154 95 -220 29 -66 74 -169
100 -230 26 -60 58 -132 70 -160 12 -27 59 -135 105 -240 45 -104 90 -208 100
-230 25 -54 83 -188 137 -315 24 -58 53 -124 64 -147 87 -192 109 -244 109
-252 0 -5 7 -11 15 -15 8 -3 172 -5 365 -6 392 0 357 -8 320 75 -10 22 -63
146 -119 275 -56 129 -108 249 -116 265 -7 17 -93 212 -190 435 -97 223 -182
419 -190 435 -13 30 -212 484 -402 920 -57 132 -111 254 -118 270 -7 17 -97
224 -200 460 -103 237 -198 455 -212 485 -14 30 -38 84 -53 120 -24 57 -500
1147 -534 1225 -28 61 -56 125 -156 355 -56 129 -172 395 -257 590 -86 195
-159 364 -163 375 -4 11 -19 45 -33 75 -13 30 -39 89 -57 130 -18 41 -40 93
-50 115 -26 58 -133 302 -348 795 -104 239 -229 525 -277 635 -49 110 -101
229 -116 265 l-28 65 -369 3 -368 2 -32 -72z"/>
</g>
</svg>
