<?xml version="1.0" standalone="no"?>
<!DOCTYPE svg PUBLIC "-//W3C//DTD SVG 20010904//EN"
 "http://www.w3.org/TR/2001/REC-SVG-20010904/DTD/svg10.dtd">
<svg version="1.0" xmlns="http://www.w3.org/2000/svg"
 width="1095.000000pt" height="1095.000000pt" viewBox="0 0 1095.000000 1095.000000"
 preserveAspectRatio="xMidYMid meet">
<metadata>
Created by potrace 1.11, written by Peter Selinger 2001-2013
</metadata>
<g transform="translate(0.000000,1095.000000) scale(0.100000,-0.100000)"
fill="#000000" stroke="none">
<path d="M6480 8820 c-519 -25 -939 -95 -2095 -349 -885 -194 -1471 -304
-1945 -365 -370 -48 -543 -59 -910 -60 -529 0 -866 36 -1063 113 -16 6 -30 11
-31 11 -2 0 12 -87 30 -194 138 -822 243 -1947 294 -3141 27 -634 37 -1881 16
-1926 -6 -14 8 -23 71 -49 528 -221 975 -277 1593 -199 477 60 898 154 1830
409 1040 285 1498 387 2030 452 161 19 234 22 565 23 313 0 404 -3 515 -18
372 -50 724 -142 1125 -292 305 -115 598 -244 1490 -658 308 -142 567 -261
576 -264 14 -4 18 16 28 154 19 266 19 291 10 432 -20 312 -70 476 -289 945
-174 372 -216 484 -279 732 -77 307 -105 558 -105 969 -1 336 8 468 50 784 59
444 141 732 306 1082 l55 116 -201 121 c-630 378 -1341 712 -1931 908 -485
160 -882 239 -1323 264 -191 10 -183 10 -412 0z m-1022 -747 c-3 -301 -2 -311
68 -354 50 -31 137 -31 187 -1 63 40 70 68 80 342 4 135 10 251 12 258 3 7 21
12 43 12 22 0 44 -6 49 -12 11 -16 -3 -476 -17 -527 -32 -118 -126 -186 -260
-186 -48 0 -92 7 -122 18 -57 22 -122 90 -137 143 -12 44 -14 254 -4 447 l6
127 49 0 50 0 -4 -267z m-304 241 c3 -9 6 -28 6 -44 0 -28 -1 -29 -100 -46
-56 -11 -100 -24 -100 -30 0 -6 25 -143 55 -304 36 -190 52 -297 45 -304 -5
-5 -28 -10 -51 -10 l-42 -1 -56 297 c-31 163 -59 300 -63 303 -4 4 -50 -1
-103 -10 -82 -15 -98 -16 -106 -4 -13 21 -11 69 4 75 16 6 464 91 488 93 9 1
20 -6 23 -15z m1188 -70 c113 -28 150 -44 191 -83 41 -38 57 -73 57 -128 -1
-91 -51 -162 -130 -183 l-37 -10 22 -44 c23 -45 63 -304 51 -325 -7 -11 -58
-5 -87 10 -12 6 -19 36 -28 116 -22 191 -42 231 -128 253 -25 6 -46 10 -48 8
-1 -2 -17 -63 -35 -136 -42 -166 -44 -170 -99 -154 -22 7 -41 18 -41 23 0 14
160 627 171 657 11 28 18 28 141 -4z m635 -214 c17 -10 36 -27 41 -37 5 -10
12 -94 16 -188 3 -93 9 -228 13 -300 l6 -129 119 237 c65 131 125 240 132 243
20 8 76 -23 76 -42 0 -8 -68 -149 -150 -314 -103 -205 -156 -301 -170 -305
-21 -7 -69 14 -90 40 -14 17 -20 96 -35 479 l-7 178 -127 -248 c-137 -268
-142 -274 -194 -234 l-27 21 155 310 c147 293 156 309 183 309 15 0 41 -9 59
-20z m-2762 -20 c27 -53 22 -60 -47 -60 -84 -1 -142 -27 -165 -74 -16 -34 -16
-38 0 -72 23 -48 66 -64 174 -64 155 -1 227 -32 264 -114 67 -148 -46 -306
-238 -332 -70 -9 -100 0 -119 37 -25 49 -15 57 69 57 63 0 84 4 124 27 76 41
99 94 68 155 -23 45 -50 53 -187 61 -113 5 -131 9 -173 33 -53 32 -95 105 -95
167 0 53 39 118 94 156 57 39 93 51 163 52 48 1 54 -1 68 -29z m-395 -492
c102 -143 191 -271 197 -284 17 -31 9 -47 -36 -72 -49 -28 -41 -31 -382 136
l-267 129 77 -106 c42 -58 119 -166 171 -240 l94 -134 -28 -24 c-16 -13 -36
-23 -44 -21 -22 4 -400 537 -401 564 -1 29 59 74 97 74 18 0 138 -52 298 -130
147 -72 268 -129 269 -128 1 2 -67 100 -151 218 -84 118 -153 222 -154 231 0
18 36 48 60 48 9 1 92 -107 200 -261z m3948 35 c87 -66 131 -104 132 -117 0
-20 -27 -56 -42 -56 -5 0 -54 34 -108 75 -54 41 -103 75 -109 75 -5 0 -39 -40
-75 -90 l-65 -90 99 -75 c55 -42 100 -81 100 -88 0 -13 -36 -57 -46 -57 -3 0
-50 34 -105 76 -55 42 -102 74 -103 72 -2 -1 -42 -56 -91 -120 -48 -65 -93
-118 -99 -118 -6 0 -24 11 -41 24 -24 19 -27 27 -20 43 6 11 98 138 205 281
146 196 200 262 216 262 11 0 80 -44 152 -97z m-4736 -260 c10 -9 18 -22 18
-29 0 -7 -45 -57 -100 -111 l-100 -98 77 -78 77 -78 87 87 88 87 25 -17 c14
-9 26 -25 26 -35 0 -11 -37 -53 -87 -100 l-88 -81 87 -87 87 -87 104 97 c58
53 108 97 113 97 15 0 44 -33 44 -51 0 -25 -247 -254 -274 -254 -14 0 -93 74
-253 238 -128 130 -233 243 -233 249 0 18 252 268 269 268 8 0 23 -7 33 -17z
m5155 -108 c67 -30 147 -110 178 -177 56 -121 20 -244 -110 -374 -91 -91 -163
-127 -262 -132 -91 -5 -160 24 -233 97 -145 145 -133 311 33 475 140 139 257
171 394 111z m-2037 -320 l0 -95 -115 0 -115 0 0 -206 0 -207 51 6 c96 12 124
46 141 171 l11 87 91 -3 91 -3 3 -337 2 -338 -93 0 -94 0 -11 75 c-15 114 -46
148 -139 161 l-53 7 0 -187 0 -186 128 0 c137 0 213 15 266 53 37 26 71 100
97 215 l21 92 91 0 90 0 -7 -157 c-3 -87 -9 -211 -13 -275 l-6 -118 -1132 0
-1132 0 -7 183 c-4 100 -9 224 -13 275 l-6 92 92 0 c65 0 93 -4 95 -12 2 -7
11 -47 20 -89 9 -42 30 -103 46 -136 25 -55 34 -63 86 -89 56 -27 68 -29 212
-33 l152 -3 0 181 c0 207 3 202 -85 182 -81 -18 -115 -70 -115 -177 l0 -54
-95 0 -95 0 0 340 0 341 93 -3 92 -3 6 -75 c10 -126 47 -171 141 -174 l53 -1
3 203 2 202 -120 0 -120 0 0 95 0 95 695 0 695 0 0 -95z m-3321 -234 l271
-203 -15 -28 c-31 -61 -33 -60 -290 131 -131 99 -241 179 -242 179 -1 0 74
-126 167 -280 94 -154 170 -284 170 -289 0 -17 -42 -61 -58 -61 -9 0 -153 38
-319 83 -167 46 -303 82 -303 81 0 -1 108 -83 240 -180 132 -98 240 -182 240
-187 0 -16 -41 -67 -53 -67 -25 0 -552 400 -555 421 -4 25 40 91 73 109 25 14
14 16 448 -99 142 -38 148 -39 135 -18 -92 144 -288 489 -288 507 0 21 40 85
64 103 6 4 18 6 27 3 9 -2 138 -94 288 -205z m5823 57 c27 -23 126 -162 147
-208 43 -94 20 -181 -63 -237 -57 -39 -120 -44 -179 -14 -20 10 -34 15 -32 11
20 -33 -136 -330 -173 -330 -9 0 -28 16 -41 35 l-23 34 55 88 c73 117 97 167
97 201 0 37 -56 126 -73 115 -6 -4 -62 -44 -124 -90 -61 -46 -116 -83 -122
-83 -13 0 -51 54 -50 72 0 13 535 416 555 417 5 1 17 -5 26 -11z m477 -702
l94 -160 -23 -18 c-42 -34 -53 -24 -125 100 -38 64 -70 119 -72 121 -3 4 -161
-85 -177 -99 -7 -7 48 -115 101 -197 13 -19 12 -24 -6 -42 -37 -37 -53 -27
-111 75 -30 52 -58 100 -61 106 -4 6 -50 -16 -113 -53 l-106 -62 32 -56 c18
-31 49 -84 70 -119 21 -34 38 -69 38 -77 0 -15 -37 -45 -56 -45 -17 0 -196
310 -192 333 4 24 562 359 593 355 13 -2 48 -52 114 -162z m-6862 -162 c183
-94 283 -151 283 -161 0 -20 -32 -73 -44 -73 -5 0 -129 61 -275 136 l-265 137
41 -49 c23 -27 118 -137 212 -244 178 -204 188 -222 153 -267 l-17 -22 -300
30 c-165 16 -306 28 -315 27 -8 -2 101 -62 242 -133 280 -141 284 -144 236
-199 l-23 -26 -299 153 c-165 84 -304 160 -309 168 -13 20 -3 56 26 100 30 45
52 46 343 20 125 -12 239 -21 255 -21 27 0 17 14 -156 217 -102 120 -188 228
-192 241 -7 28 23 98 50 117 26 18 19 21 354 -151z m7083 -226 c41 -67 35 -80
-147 -325 -93 -124 -174 -234 -182 -244 -17 -23 -26 -27 273 110 109 50 205
91 213 91 19 0 48 -69 34 -83 -12 -12 -586 -275 -618 -283 -17 -5 -26 1 -43
28 -40 67 -46 55 204 392 81 109 145 200 143 203 -3 2 -27 -7 -54 -20 -66 -34
-449 -207 -456 -207 -11 0 -38 61 -35 77 3 18 588 291 626 292 15 1 29 -10 42
-31z m-2746 -240 c3 -95 9 -219 13 -275 l6 -103 -91 0 -92 0 -6 28 c-18 84
-58 210 -75 238 -43 70 -122 94 -306 94 l-133 0 0 -179 c0 -108 4 -182 10
-186 18 -11 123 15 145 35 28 26 45 83 45 149 l0 51 95 0 95 0 0 -335 0 -336
-92 3 -93 3 -6 71 c-11 120 -45 161 -143 171 l-56 6 0 -207 0 -206 120 0 120
0 0 -95 0 -95 -695 0 -695 0 0 95 0 95 115 0 115 0 0 205 0 205 -27 0 c-46 0
-98 -19 -121 -42 -21 -24 -38 -78 -48 -160 l-5 -48 -95 0 -94 0 0 335 0 335
94 0 95 0 6 -57 c13 -118 38 -154 115 -172 86 -20 80 -34 80 174 l0 185 -127
0 c-260 -1 -311 -39 -364 -267 l-21 -93 -91 0 -90 0 7 148 c3 81 9 204 13 275
l6 127 1132 0 1132 0 7 -172z m3025 -432 c7 -8 15 -30 18 -49 5 -34 5 -35 -48
-55 -384 -142 -611 -222 -618 -217 -18 10 -34 76 -22 88 8 8 633 244 652 246
4 1 12 -5 18 -13z m-7475 -22 c19 -7 21 -43 5 -78 -11 -24 -16 -25 -112 -28
l-101 -3 -48 -134 c-27 -73 -47 -134 -46 -136 52 -36 148 -121 148 -132 0 -23
-29 -73 -43 -73 -12 0 -559 448 -571 469 -11 17 16 91 38 107 17 11 83 14 367
14 191 0 354 -3 363 -6z m7594 -307 c8 -16 14 -44 15 -63 1 -32 -15 -51 -219
-255 -120 -122 -210 -218 -199 -215 11 3 128 37 260 76 l240 70 18 -21 c9 -12
17 -33 17 -48 0 -27 -1 -28 -319 -119 -176 -51 -329 -92 -339 -92 -27 0 -43
22 -49 70 l-6 41 233 234 233 234 -274 -80 -274 -80 -17 22 c-10 12 -18 32
-18 45 0 14 8 28 18 32 64 25 622 181 642 179 16 -1 30 -12 38 -30z m-8267
-243 c38 -19 76 -68 90 -114 l12 -39 26 19 c31 23 79 34 224 51 126 15 134 12
117 -50 -12 -46 -9 -45 -150 -61 -167 -19 -205 -39 -229 -121 -15 -51 -16 -50
98 -79 47 -12 110 -28 140 -37 l53 -15 -6 -36 c-11 -69 -1 -70 -356 24 -179
47 -332 92 -339 100 -13 12 -11 27 13 121 42 162 85 228 164 253 33 11 108 3
143 -16z m8344 -513 c101 -50 162 -138 186 -266 16 -89 -5 -206 -41 -225 -23
-12 -67 -13 -74 -1 -3 5 1 28 10 52 9 24 16 74 16 110 2 166 -113 270 -283
256 -201 -17 -313 -166 -254 -338 28 -80 27 -79 133 -59 51 9 94 19 96 21 3 2
-2 40 -11 84 -14 75 -14 80 4 93 10 7 29 12 43 10 24 -3 26 -9 49 -131 17 -91
20 -132 13 -139 -19 -19 -311 -69 -332 -58 -27 15 -88 145 -101 215 -19 103 7
214 67 284 106 124 328 166 479 92z m-8315 -97 c145 -40 230 -132 246 -267 8
-71 -23 -281 -45 -308 -16 -19 -24 -18 -331 36 -378 65 -357 61 -362 82 -6 24
36 249 55 293 40 93 122 160 219 180 53 11 145 4 218 -16z"/>
<path d="M6285 8157 c-13 -40 -56 -209 -53 -211 2 -2 24 -8 50 -15 127 -30
198 6 198 102 0 60 -31 87 -133 118 -43 13 -59 14 -62 6z"/>
<path d="M8022 7105 c-86 -26 -199 -133 -241 -226 -39 -85 -19 -165 59 -232
99 -85 219 -62 344 66 98 100 128 195 87 276 -26 50 -91 107 -138 120 -47 13
-57 13 -111 -4z"/>
<path d="M5320 6290 l0 -480 140 0 140 0 0 480 0 480 -140 0 -140 0 0 -480z"/>
<path d="M8540 6516 c-46 -35 -86 -68 -87 -73 -7 -19 79 -115 114 -130 46 -19
78 -10 120 32 51 51 40 118 -34 202 l-28 32 -85 -63z"/>
<path d="M5320 4860 l0 -480 145 0 145 0 0 480 0 480 -145 0 -145 0 0 -480z"/>
<path d="M1638 4696 c74 -59 137 -104 141 -100 11 13 75 194 70 199 -2 2 -81
5 -174 7 l-170 3 133 -109z"/>
<path d="M1354 4258 c-18 -4 -39 -18 -47 -31 -15 -23 -58 -149 -52 -155 1 -1
50 -16 109 -31 l107 -29 11 26 c6 15 13 56 15 93 5 58 3 68 -18 93 -28 31 -81
46 -125 34z"/>
<path d="M1310 3651 c-51 -11 -94 -36 -125 -73 -33 -39 -43 -64 -59 -151 -13
-65 -12 -68 8 -72 41 -9 487 -85 500 -85 14 0 36 96 36 156 0 95 -59 169 -161
202 -76 24 -151 33 -199 23z"/>
</g>
</svg>
